# xmcd CD database file
#
# Track frame offsets:
#	150
#	16200
#	32262
#	53925
#	75262
#	94682
#	116040
#	123052
#	137775
#	161385
#
# Disc length: 2489 seconds
#
# Revision: 6
# Processed by: cddbd v1.5.2PL0 Copyright (c) Steve Scherf et al.
# Submitted via: CDex 1.70beta2
#
DISCID=6a09b70a
DTITLE=筋肉少女帯 - 月光蟲
DYEAR=1990
DGENRE=Hard Rock
TTITLE0=風車男ルリヲ
TTITLE1=少年、グリグリメガネを拾う
TTITLE2=デコイとクレーター
TTITLE3=サボテンとバントライン (Remix)
TTITLE4=夜歩くプラネタリウム人間
TTITLE5=僕の宗教へようこそ
TTITLE6=悲しきダメ人間
TTITLE7=少女の王国
TTITLE8=イワンのばか
TTITLE9=少女王国の崩壊
EXTD=YEAR: 1990
EXTT0=
EXTT1=
EXTT2=
EXTT3=
EXTT4=
EXTT5=
EXTT6=
EXTT7=
EXTT8=
EXTT9=
PLAYORDER=
